REM DIRINDEX 1\2\6,1\2\7,1\2\8,1\2\9,1\3\10,1\3\11,1\4\12,1\4\13,1\4\14,1\5\15,1\5\16,1\5\17
REM DIRNAME folder01,folder02,folder03,folder04,folder05,folder06,folder07,folder08,folder09,folder10,folder11,folder12,folder13,folder14,folder15,folder16,folder17
TITLE ""
FILE "1900_3_033 sec06_0531_0547.mp3" MP3
  TRACK 01 AUDIO
    TITLE "0:"
    INDEX 01 00:00:00
  TRACK 02 AUDIO
    TITLE "17:cjc020_7033"
    INDEX 01 00:00:19
  TRACK 03 AUDIO
    TITLE "0:"
    INDEX 01 00:01:40
  TRACK 04 AUDIO
    TITLE "16:cjc020_7034"
    INDEX 01 00:01:48
  TRACK 05 AUDIO
    TITLE "0:"
    INDEX 01 00:02:53
  TRACK 06 AUDIO
    TITLE "17:cjc020_7035"
    INDEX 01 00:03:37
  TRACK 07 AUDIO
    TITLE "0:"
    INDEX 01 00:04:70
  TRACK 08 AUDIO
    TITLE "16:cjc020_7036"
    INDEX 01 00:04:74
  TRACK 09 AUDIO
    TITLE "0:"
    INDEX 01 00:06:10
  TRACK 10 AUDIO
    TITLE "17:cjc020_7037"
    INDEX 01 00:06:69
  TRACK 11 AUDIO
    TITLE "0:"
    INDEX 01 00:07:70
  TRACK 12 AUDIO
    TITLE "16:cjc020_7038"
    INDEX 01 00:08:03
  TRACK 13 AUDIO
    TITLE "0:"
    INDEX 01 00:09:10
  TRACK 14 AUDIO
    TITLE "17:cjc020_7039"
    INDEX 01 00:09:71
  TRACK 15 AUDIO
    TITLE "0:"
    INDEX 01 00:11:13
  TRACK 16 AUDIO
    TITLE "16:cjc020_7040"
    INDEX 01 00:11:19
  TRACK 17 AUDIO
    TITLE "0:"
    INDEX 01 00:12:26
  TRACK 18 AUDIO
    TITLE "17:cjc020_7041"
    INDEX 01 00:13:04
  TRACK 19 AUDIO
    TITLE "0:"
    INDEX 01 00:14:21
  TRACK 20 AUDIO
    TITLE "16:cjc020_7042"
    INDEX 01 00:14:25
  TRACK 21 AUDIO
    TITLE "0:"
    INDEX 01 00:15:32
  TRACK 22 AUDIO
    TITLE "17:cjc020_7043"
    INDEX 01 00:16:16
  TRACK 23 AUDIO
    TITLE "0:"
    INDEX 01 00:18:68
  TRACK 24 AUDIO
    TITLE "16:cjc020_7044"
    INDEX 01 00:18:72
  TRACK 25 AUDIO
    TITLE "0:"
    INDEX 01 00:19:73
  TRACK 26 AUDIO
    TITLE "17:cjc020_7045"
    INDEX 01 00:20:55
  TRACK 27 AUDIO
    TITLE "0:"
    INDEX 01 00:21:49
  TRACK 28 AUDIO
    TITLE "16:cjc020_7046"
    INDEX 01 00:21:57
  TRACK 29 AUDIO
    TITLE "0:"
    INDEX 01 00:22:56
  TRACK 30 AUDIO
    TITLE "17:cjc020_7047"
    INDEX 01 00:23:40
  TRACK 31 AUDIO
    TITLE "0:"
    INDEX 01 00:24:55
  TRACK 32 AUDIO
    TITLE "16:cjc020_7048"
    INDEX 01 00:24:63
  TRACK 33 AUDIO
    TITLE "0:"
    INDEX 01 00:26:01
  TRACK 34 AUDIO
    TITLE "17:cjc020_7049"
    INDEX 01 00:26:62
  TRACK 35 AUDIO
    TITLE "0:"
    INDEX 01 00:28:15
  TRACK 36 AUDIO
    TITLE "16:cjc020_7050"
    INDEX 01 00:28:17
  TRACK 37 AUDIO
    TITLE "0:"
    INDEX 01 00:29:64
  TRACK 38 AUDIO
    TITLE "17:cjc020_7051"
    INDEX 01 00:30:50
  TRACK 39 AUDIO
    TITLE "0:"
    INDEX 01 00:32:00
  TRACK 40 AUDIO
    TITLE "16:cjc020_7052"
    INDEX 01 00:32:07
  TRACK 41 AUDIO
    TITLE "0:"
    INDEX 01 00:33:26
  TRACK 42 AUDIO
    TITLE "17:cjc020_7053"
    INDEX 01 00:34:08
  TRACK 43 AUDIO
    TITLE "0:"
    INDEX 01 00:34:73
  TRACK 44 AUDIO
    TITLE "16:cjc020_7054"
    INDEX 01 00:35:02
  TRACK 45 AUDIO
    TITLE "0:"
    INDEX 01 00:36:13
  TRACK 46 AUDIO
    TITLE "17:cjc020_7055"
    INDEX 01 00:36:70
  TRACK 47 AUDIO
    TITLE "0:"
    INDEX 01 00:39:35
  TRACK 48 AUDIO
    TITLE "16:cjc020_7056"
    INDEX 01 00:39:41
  TRACK 49 AUDIO
    TITLE "0:"
    INDEX 01 00:40:52
  TRACK 50 AUDIO
    TITLE "17:cjc020_7057"
    INDEX 01 00:41:36
  TRACK 51 AUDIO
    TITLE "0:"
    INDEX 01 00:43:42
  TRACK 52 AUDIO
    TITLE "16:cjc020_7058"
    INDEX 01 00:43:46
  TRACK 53 AUDIO
    TITLE "0:"
    INDEX 01 00:44:67
  TRACK 54 AUDIO
    TITLE "17:cjc020_7059"
    INDEX 01 00:45:51
  TRACK 55 AUDIO
    TITLE "0:"
    INDEX 01 00:46:74
  TRACK 56 AUDIO
    TITLE "16:cjc020_7060"
    INDEX 01 00:47:05
  TRACK 57 AUDIO
    TITLE "0:"
    INDEX 01 00:48:22
  TRACK 58 AUDIO
    TITLE "17:cjc020_7061"
    INDEX 01 00:49:08
  TRACK 59 AUDIO
    TITLE "0:"
    INDEX 01 00:50:09
  TRACK 60 AUDIO
    TITLE "16:cjc020_7062"
    INDEX 01 00:50:11
  TRACK 61 AUDIO
    TITLE "0:"
    INDEX 01 00:51:36
  TRACK 62 AUDIO
    TITLE "17:cjc020_7063"
    INDEX 01 00:52:16
  TRACK 63 AUDIO
    TITLE "0:"
    INDEX 01 00:53:41
  TRACK 64 AUDIO
    TITLE "16:cjc020_7064"
    INDEX 01 00:53:43
  TRACK 65 AUDIO
    TITLE "0:"
    INDEX 01 00:54:52
  TRACK 66 AUDIO
    TITLE "17:cjc020_7065"
    INDEX 01 00:55:38
  TRACK 67 AUDIO
    TITLE "0:"
    INDEX 01 00:56:25
  TRACK 68 AUDIO
    TITLE "16:cjc020_7066"
    INDEX 01 00:56:31
  TRACK 69 AUDIO
    TITLE "0:"
    INDEX 01 00:57:56
